<?xml version="1.0" encoding="UTF-8" standalone="no"?>
<!-- Created with Inkscape (http://www.inkscape.org/) -->

<svg
   xmlns:dc="http://purl.org/dc/elements/1.1/"
   xmlns:cc="http://creativecommons.org/ns#"
   xmlns:rdf="http://www.w3.org/1999/02/22-rdf-syntax-ns#"
   xmlns:svg="http://www.w3.org/2000/svg"
   xmlns="http://www.w3.org/2000/svg"
   xmlns:sodipodi="http://sodipodi.sourceforge.net/DTD/sodipodi-0.dtd"
   xmlns:inkscape="http://www.inkscape.org/namespaces/inkscape"
   width="721"
   height="623"
   viewBox="0 0 190.76457 164.83533"
   version="1.1"
   id="svg8"
   inkscape:version="0.92.5 (2060ec1f9f, 2020-04-08)"
   sodipodi:docname="blueprint.svg">
  <defs
     id="defs2" />
  <sodipodi:namedview
     id="base"
     pagecolor="#ffffff"
     bordercolor="#666666"
     borderopacity="1.0"
     inkscape:pageopacity="0.0"
     inkscape:pageshadow="2"
     inkscape:zoom="5.6568543"
     inkscape:cx="713.22498"
     inkscape:cy="588.90045"
     inkscape:document-units="mm"
     inkscape:current-layer="layer1"
     showgrid="false"
     units="px"
     inkscape:window-width="1920"
     inkscape:window-height="1032"
     inkscape:window-x="0"
     inkscape:window-y="24"
     inkscape:window-maximized="1" />
  <metadata
     id="metadata5">
    <rdf:RDF>
      <cc:Work
         rdf:about="">
        <dc:format>image/svg+xml</dc:format>
        <dc:type
           rdf:resource="http://purl.org/dc/dcmitype/StillImage" />
        <dc:title></dc:title>
      </cc:Work>
    </rdf:RDF>
  </metadata>
  <g
     inkscape:label="Layer 1"
     inkscape:groupmode="layer"
     id="layer1"
     transform="translate(0,-132.16463)">
    <g
       id="g1058"
       transform="matrix(0.82098555,0,0,0.82098555,86.916466,14.557456)"
       style="fill:#cccccc">
      <g
         transform="translate(0,0.14710833)"
         id="g896"
         style="fill:#cccccc">
        <g
           id="g849"
           style="fill:#cccccc" />
        <g
           id="g855"
           transform="translate(0,5.291625)"
           style="fill:#cccccc" />
        <g
           transform="translate(0,10.583292)"
           id="g861"
           style="fill:#cccccc" />
        <g
           id="g867"
           transform="translate(0,15.874958)"
           style="fill:#cccccc" />
        <g
           transform="translate(0,21.166625)"
           id="g879"
           style="fill:#cccccc" />
      </g>
      <g
         transform="translate(0,26.605442)"
         id="g928"
         style="fill:#cccccc">
        <g
           id="g902"
           style="fill:#cccccc" />
        <g
           transform="translate(0,5.291625)"
           id="g908"
           style="fill:#cccccc" />
        <g
           id="g914"
           transform="translate(0,10.583292)"
           style="fill:#cccccc" />
        <g
           transform="translate(0,15.874958)"
           id="g920"
           style="fill:#cccccc" />
        <g
           id="g926"
           transform="translate(0,21.166625)"
           style="fill:#cccccc" />
      </g>
      <g
         id="g960"
         transform="translate(0,53.063774)"
         style="fill:#cccccc">
        <g
           id="g934"
           style="fill:#cccccc" />
        <g
           transform="translate(0,5.291625)"
           id="g940"
           style="fill:#cccccc" />
        <g
           id="g946"
           transform="translate(0,10.583292)"
           style="fill:#cccccc" />
        <g
           transform="translate(0,15.874958)"
           id="g952"
           style="fill:#cccccc" />
        <g
           id="g958"
           transform="translate(0,21.166625)"
           style="fill:#cccccc" />
      </g>
      <g
         id="g992"
         transform="translate(0,79.522108)"
         style="fill:#cccccc">
        <g
           id="g966"
           style="fill:#cccccc" />
        <g
           id="g972"
           transform="translate(0,5.291625)"
           style="fill:#cccccc" />
        <g
           transform="translate(0,10.583292)"
           id="g978"
           style="fill:#cccccc" />
        <g
           id="g984"
           transform="translate(0,15.874958)"
           style="fill:#cccccc" />
        <g
           transform="translate(0,21.166625)"
           id="g990"
           style="fill:#cccccc">
          <path
             style="fill:#cccccc;fill-opacity:1;stroke-width:0.68203139"
             d="m -600,-100 v 600 h 400 v -600 z m 10,10 h 380 v 580 h -20 V 334.58789 H -342.08789 V 490 h -27.16016 V 370.2168 h -86.39062 V 490 h -27.97071 V 370.2168 H -570 V 490 h -20 V 270 h 49.21875 V 235 H -590 v -55 h 49.21875 V 145 H -590 V 90 h 49.21875 V 55 H -590 v -65 h 49.21875 V -45 H -590 Z m 20,5 a 14.999441,14.999441 0 0 0 -15,15 14.999441,14.999441 0 0 0 15,15 14.999441,14.999441 0 0 0 15,-15 14.999441,14.999441 0 0 0 -15,-15 z m 340,0 a 14.999441,14.999441 0 0 0 -15,15 14.999441,14.999441 0 0 0 15,15 14.999441,14.999441 0 0 0 15,-15 14.999441,14.999441 0 0 0 -15,-15 z m -340,6.521484 A 8.4779449,8.4779449 0 0 1 -561.52148,-70 8.4779449,8.4779449 0 0 1 -570,-61.521484 8.4779449,8.4779449 0 0 1 -578.47852,-70 8.4779449,8.4779449 0 0 1 -570,-78.478516 Z m 340,0 A 8.477945,8.477945 0 0 1 -221.52148,-70 8.477945,8.477945 0 0 1 -230,-61.521484 8.477945,8.477945 0 0 1 -238.47852,-70 8.477945,8.477945 0 0 1 -230,-78.478516 Z M -246.86719,-40 v 12.314453 h 12.31446 V -40 Z m 16.41992,0 v 12.314453 h 12.31446 V -40 Z m -10.26171,1.089844 a 5.0689081,5.0689081 0 0 1 5.06836,5.068359 5.0689081,5.0689081 0 0 1 -5.06836,5.068359 5.0689081,5.0689081 0 0 1 -5.07032,-5.068359 5.0689081,5.0689081 0 0 1 5.07032,-5.068359 z m 16.41796,0 a 5.0689081,5.0689081 0 0 1 5.07032,5.068359 5.0689081,5.0689081 0 0 1 -5.07032,5.068359 5.0689081,5.0689081 0 0 1 -5.06836,-5.068359 5.0689081,5.0689081 0 0 1 5.06836,-5.068359 z m -16.41796,3.263672 a 1.8034584,1.8034584 0 0 0 -1.80469,1.804687 1.8034584,1.8034584 0 0 0 1.80469,1.802735 1.8034584,1.8034584 0 0 0 1.80273,-1.802735 1.8034584,1.8034584 0 0 0 -1.80273,-1.804687 z m 16.41796,0 a 1.8034584,1.8034584 0 0 0 -1.80273,1.804687 1.8034584,1.8034584 0 0 0 1.80273,1.802735 1.8034584,1.8034584 0 0 0 1.80469,-1.802735 1.8034584,1.8034584 0 0 0 -1.80469,-1.804687 z m -22.57617,12.066406 v 12.314453 h 12.31446 v -12.314453 z m 16.41992,0 v 12.314453 h 12.31446 v -12.314453 z m -10.26171,1.08789 a 5.0689081,5.0689081 0 0 1 5.06836,5.06836 5.0689081,5.0689081 0 0 1 -5.06836,5.070312 5.0689081,5.0689081 0 0 1 -5.07032,-5.070312 5.0689081,5.0689081 0 0 1 5.07032,-5.06836 z m 16.41796,0 a 5.0689081,5.0689081 0 0 1 5.07032,5.06836 5.0689081,5.0689081 0 0 1 -5.07032,5.070312 5.0689081,5.0689081 0 0 1 -5.06836,-5.070312 5.0689081,5.0689081 0 0 1 5.06836,-5.06836 z m -16.41796,3.265626 a 1.8034584,1.8034584 0 0 0 -1.80469,1.802734 1.8034584,1.8034584 0 0 0 1.80469,1.804687 1.8034584,1.8034584 0 0 0 1.80273,-1.804687 1.8034584,1.8034584 0 0 0 -1.80273,-1.802734 z m 16.41796,0 a 1.8034584,1.8034584 0 0 0 -1.80273,1.802734 1.8034584,1.8034584 0 0 0 1.80273,1.804687 1.8034584,1.8034584 0 0 0 1.80469,-1.804687 1.8034584,1.8034584 0 0 0 -1.80469,-1.802734 z m -22.57617,12.0664058 V 5.1542969 h 12.31446 V -7.1601562 Z m 16.41992,0 V 5.1542969 h 12.31446 V -7.1601562 Z m -10.26171,1.0878906 a 5.0689081,5.0689081 0 0 1 5.06836,5.0683594 5.0689081,5.0689081 0 0 1 -5.06836,5.0703124 5.0689081,5.0689081 0 0 1 -5.07032,-5.0703124 5.0689081,5.0689081 0 0 1 5.07032,-5.0683594 z m 16.41796,0 a 5.0689081,5.0689081 0 0 1 5.07032,5.0683594 5.0689081,5.0689081 0 0 1 -5.07032,5.0703124 5.0689081,5.0689081 0 0 1 -5.06836,-5.0703124 5.0689081,5.0689081 0 0 1 5.06836,-5.0683594 z m -16.41796,3.265625 a 1.8034584,1.8034584 0 0 0 -1.80469,1.8027344 1.8034584,1.8034584 0 0 0 1.80469,1.80468745 1.8034584,1.8034584 0 0 0 1.80273,-1.80468745 1.8034584,1.8034584 0 0 0 -1.80273,-1.8027344 z m 16.41796,0 a 1.8034584,1.8034584 0 0 0 -1.80273,1.8027344 1.8034584,1.8034584 0 0 0 1.80273,1.80468745 1.8034584,1.8034584 0 0 0 1.80469,-1.80468745 1.8034584,1.8034584 0 0 0 -1.80469,-1.8027344 z M -246.86719,9.2597656 V 21.574219 h 12.31446 V 9.2597656 Z m 16.41992,0 V 21.574219 h 12.31446 V 9.2597656 Z m -10.26171,1.0878904 a 5.0689081,5.0689081 0 0 1 5.06836,5.06836 5.0689081,5.0689081 0 0 1 -5.06836,5.068359 5.0689081,5.0689081 0 0 1 -5.07032,-5.068359 5.0689081,5.0689081 0 0 1 5.07032,-5.06836 z m 16.41796,0 a 5.0689081,5.0689081 0 0 1 5.07032,5.06836 5.0689081,5.0689081 0 0 1 -5.07032,5.068359 5.0689081,5.0689081 0 0 1 -5.06836,-5.068359 5.0689081,5.0689081 0 0 1 5.06836,-5.06836 z m -16.41796,3.265625 a 1.8034584,1.8034584 0 0 0 -1.80469,1.802735 1.8034584,1.8034584 0 0 0 1.80469,1.804687 1.8034584,1.8034584 0 0 0 1.80273,-1.804687 1.8034584,1.8034584 0 0 0 -1.80273,-1.802735 z m 16.41796,0 a 1.8034584,1.8034584 0 0 0 -1.80273,1.802735 1.8034584,1.8034584 0 0 0 1.80273,1.804687 1.8034584,1.8034584 0 0 0 1.80469,-1.804687 1.8034584,1.8034584 0 0 0 -1.80469,-1.802735 z m -22.57617,12.066407 v 12.314453 h 12.31446 V 25.679688 Z m 16.41992,0 v 12.314453 h 12.31446 V 25.679688 Z m -173.61328,0.558593 v 86.873049 h 82.83203 V 26.238281 Z m 163.35157,0.529297 a 5.0689081,5.0689081 0 0 1 5.06836,5.06836 5.0689081,5.0689081 0 0 1 -5.06836,5.068359 5.0689081,5.0689081 0 0 1 -5.07032,-5.068359 5.0689081,5.0689081 0 0 1 5.07032,-5.06836 z m 16.41796,0 a 5.0689081,5.0689081 0 0 1 5.07032,5.06836 5.0689081,5.0689081 0 0 1 -5.07032,5.068359 5.0689081,5.0689081 0 0 1 -5.06836,-5.068359 5.0689081,5.0689081 0 0 1 5.06836,-5.06836 z m -16.41796,3.265625 a 1.8034584,1.8034584 0 0 0 -1.80469,1.802735 1.8034584,1.8034584 0 0 0 1.80469,1.804687 1.8034584,1.8034584 0 0 0 1.80273,-1.804687 1.8034584,1.8034584 0 0 0 -1.80273,-1.802735 z m 16.41796,0 a 1.8034584,1.8034584 0 0 0 -1.80273,1.802735 1.8034584,1.8034584 0 0 0 1.80273,1.804687 1.8034584,1.8034584 0 0 0 1.80469,-1.804687 1.8034584,1.8034584 0 0 0 -1.80469,-1.802735 z m -22.57617,12.066406 v 12.314453 h 12.31446 V 42.099609 Z m 16.41992,0 v 12.314453 h 12.31446 V 42.099609 Z m -10.26171,1.087891 a 5.0689081,5.0689081 0 0 1 5.06836,5.068359 5.0689081,5.0689081 0 0 1 -5.06836,5.06836 5.0689081,5.0689081 0 0 1 -5.07032,-5.06836 5.0689081,5.0689081 0 0 1 5.07032,-5.068359 z m 16.41796,0 a 5.0689081,5.0689081 0 0 1 5.07032,5.068359 5.0689081,5.0689081 0 0 1 -5.07032,5.06836 5.0689081,5.0689081 0 0 1 -5.06836,-5.06836 5.0689081,5.0689081 0 0 1 5.06836,-5.068359 z m -16.41796,3.265625 a 1.8034584,1.8034584 0 0 0 -1.80469,1.802734 1.8034584,1.8034584 0 0 0 1.80469,1.804688 1.8034584,1.8034584 0 0 0 1.80273,-1.804688 1.8034584,1.8034584 0 0 0 -1.80273,-1.802734 z m 16.41796,0 a 1.8034584,1.8034584 0 0 0 -1.80273,1.802734 1.8034584,1.8034584 0 0 0 1.80273,1.804688 1.8034584,1.8034584 0 0 0 1.80469,-1.804688 1.8034584,1.8034584 0 0 0 -1.80469,-1.802734 z m -22.57617,12.064453 v 12.316406 h 12.31446 V 58.517578 Z m 16.41992,0 v 12.316406 h 12.31446 V 58.517578 Z m -10.26171,1.089844 a 5.0689081,5.0689081 0 0 1 5.06836,5.068359 5.0689081,5.0689081 0 0 1 -5.06836,5.06836 5.0689081,5.0689081 0 0 1 -5.07032,-5.06836 5.0689081,5.0689081 0 0 1 5.07032,-5.068359 z m 16.41796,0 a 5.0689081,5.0689081 0 0 1 5.07032,5.068359 5.0689081,5.0689081 0 0 1 -5.07032,5.06836 5.0689081,5.0689081 0 0 1 -5.06836,-5.06836 5.0689081,5.0689081 0 0 1 5.06836,-5.068359 z m -16.41796,3.263672 a 1.8034584,1.8034584 0 0 0 -1.80469,1.804687 1.8034584,1.8034584 0 0 0 1.80469,1.804688 1.8034584,1.8034584 0 0 0 1.80273,-1.804688 1.8034584,1.8034584 0 0 0 -1.80273,-1.804687 z m 16.41796,0 a 1.8034584,1.8034584 0 0 0 -1.80273,1.804687 1.8034584,1.8034584 0 0 0 1.80273,1.804688 1.8034584,1.8034584 0 0 0 1.80469,-1.804688 1.8034584,1.8034584 0 0 0 -1.80469,-1.804687 z M -246.86719,74.9375 v 12.314453 h 12.31446 V 74.9375 Z m 16.41992,0 v 12.314453 h 12.31446 V 74.9375 Z m -10.26171,1.089844 a 5.0689081,5.0689081 0 0 1 5.06836,5.068359 5.0689081,5.0689081 0 0 1 -5.06836,5.068359 5.0689081,5.0689081 0 0 1 -5.07032,-5.068359 5.0689081,5.0689081 0 0 1 5.07032,-5.068359 z m 16.41796,0 a 5.0689081,5.0689081 0 0 1 5.07032,5.068359 5.0689081,5.0689081 0 0 1 -5.07032,5.068359 5.0689081,5.0689081 0 0 1 -5.06836,-5.068359 5.0689081,5.0689081 0 0 1 5.06836,-5.068359 z m -16.41796,3.263672 a 1.8034584,1.8034584 0 0 0 -1.80469,1.804687 1.8034584,1.8034584 0 0 0 1.80469,1.802735 1.8034584,1.8034584 0 0 0 1.80273,-1.802735 1.8034584,1.8034584 0 0 0 -1.80273,-1.804687 z m 16.41796,0 a 1.8034584,1.8034584 0 0 0 -1.80273,1.804687 1.8034584,1.8034584 0 0 0 1.80273,1.802735 1.8034584,1.8034584 0 0 0 1.80469,-1.802735 1.8034584,1.8034584 0 0 0 -1.80469,-1.804687 z m -22.57617,12.066406 v 12.314458 h 12.31446 V 91.357422 Z m 16.41992,0 v 12.314458 h 12.31446 V 91.357422 Z m -10.26171,1.089844 a 5.0689081,5.0689081 0 0 1 5.06836,5.068359 5.0689081,5.0689081 0 0 1 -5.06836,5.068355 5.0689081,5.0689081 0 0 1 -5.07032,-5.068355 5.0689081,5.0689081 0 0 1 5.07032,-5.068359 z m 16.41796,0 a 5.0689081,5.0689081 0 0 1 5.07032,5.068359 5.0689081,5.0689081 0 0 1 -5.07032,5.068355 5.0689081,5.0689081 0 0 1 -5.06836,-5.068355 5.0689081,5.0689081 0 0 1 5.06836,-5.068359 z m -16.41796,3.263672 a 1.8034584,1.8034584 0 0 0 -1.80469,1.804687 1.8034584,1.8034584 0 0 0 1.80469,1.802734 1.8034584,1.8034584 0 0 0 1.80273,-1.802734 1.8034584,1.8034584 0 0 0 -1.80273,-1.804687 z m 16.41796,0 a 1.8034584,1.8034584 0 0 0 -1.80273,1.804687 1.8034584,1.8034584 0 0 0 1.80273,1.802734 1.8034584,1.8034584 0 0 0 1.80469,-1.802734 1.8034584,1.8034584 0 0 0 -1.80469,-1.804687 z m -22.57617,12.066402 v 12.31446 h 12.31446 v -12.31446 z m 16.41992,0 v 12.31446 h 12.31446 v -12.31446 z m -10.26171,1.08789 a 5.0689081,5.0689081 0 0 1 5.06836,5.07032 5.0689081,5.0689081 0 0 1 -5.06836,5.06836 5.0689081,5.0689081 0 0 1 -5.07032,-5.06836 5.0689081,5.0689081 0 0 1 5.07032,-5.07032 z m 16.41796,0 a 5.0689081,5.0689081 0 0 1 5.07032,5.07032 5.0689081,5.0689081 0 0 1 -5.07032,5.06836 5.0689081,5.0689081 0 0 1 -5.06836,-5.06836 5.0689081,5.0689081 0 0 1 5.06836,-5.07032 z m -16.41796,3.26563 a 1.8034584,1.8034584 0 0 0 -1.80469,1.80469 1.8034584,1.8034584 0 0 0 1.80469,1.80273 1.8034584,1.8034584 0 0 0 1.80273,-1.80273 1.8034584,1.8034584 0 0 0 -1.80273,-1.80469 z m 16.41796,0 a 1.8034584,1.8034584 0 0 0 -1.80273,1.80469 1.8034584,1.8034584 0 0 0 1.80273,1.80273 1.8034584,1.8034584 0 0 0 1.80469,-1.80273 1.8034584,1.8034584 0 0 0 -1.80469,-1.80469 z m -22.57617,12.06641 v 12.31445 h 12.31446 v -12.31445 z m 16.41992,0 v 12.31445 h 12.31446 v -12.31445 z m -10.26171,1.08789 a 5.0689081,5.0689081 0 0 1 5.06836,5.07031 5.0689081,5.0689081 0 0 1 -5.06836,5.06836 5.0689081,5.0689081 0 0 1 -5.07032,-5.06836 5.0689081,5.0689081 0 0 1 5.07032,-5.07031 z m 16.41796,0 a 5.0689081,5.0689081 0 0 1 5.07032,5.07031 5.0689081,5.0689081 0 0 1 -5.07032,5.06836 5.0689081,5.0689081 0 0 1 -5.06836,-5.06836 5.0689081,5.0689081 0 0 1 5.06836,-5.07031 z m -16.41796,3.26562 a 1.8034584,1.8034584 0 0 0 -1.80469,1.80469 1.8034584,1.8034584 0 0 0 1.80469,1.80273 1.8034584,1.8034584 0 0 0 1.80273,-1.80273 1.8034584,1.8034584 0 0 0 -1.80273,-1.80469 z m 16.41796,0 a 1.8034584,1.8034584 0 0 0 -1.80273,1.80469 1.8034584,1.8034584 0 0 0 1.80273,1.80273 1.8034584,1.8034584 0 0 0 1.80469,-1.80273 1.8034584,1.8034584 0 0 0 -1.80469,-1.80469 z m -22.57617,12.06641 v 12.31445 h 12.31446 v -12.31445 z m 16.41992,0 v 12.31445 h 12.31446 v -12.31445 z m -10.26171,1.08789 a 5.0689081,5.0689081 0 0 1 5.06836,5.06836 5.0689081,5.0689081 0 0 1 -5.06836,5.07031 5.0689081,5.0689081 0 0 1 -5.07032,-5.07031 5.0689081,5.0689081 0 0 1 5.07032,-5.06836 z m 16.41796,0 a 5.0689081,5.0689081 0 0 1 5.07032,5.06836 5.0689081,5.0689081 0 0 1 -5.07032,5.07031 5.0689081,5.0689081 0 0 1 -5.06836,-5.07031 5.0689081,5.0689081 0 0 1 5.06836,-5.06836 z m -16.41796,3.26562 a 1.8034584,1.8034584 0 0 0 -1.80469,1.80274 1.8034584,1.8034584 0 0 0 1.80469,1.80468 1.8034584,1.8034584 0 0 0 1.80273,-1.80468 1.8034584,1.8034584 0 0 0 -1.80273,-1.80274 z m 16.41796,0 a 1.8034584,1.8034584 0 0 0 -1.80273,1.80274 1.8034584,1.8034584 0 0 0 1.80273,1.80468 1.8034584,1.8034584 0 0 0 1.80469,-1.80468 1.8034584,1.8034584 0 0 0 -1.80469,-1.80274 z m -22.57617,12.06641 v 12.31445 h 12.31446 v -12.31445 z m 16.41992,0 v 12.31445 h 12.31446 v -12.31445 z m -10.26171,1.08789 a 5.0689081,5.0689081 0 0 1 5.06836,5.06836 5.0689081,5.0689081 0 0 1 -5.06836,5.06836 5.0689081,5.0689081 0 0 1 -5.07032,-5.06836 5.0689081,5.0689081 0 0 1 5.07032,-5.06836 z m 16.41796,0 a 5.0689081,5.0689081 0 0 1 5.07032,5.06836 5.0689081,5.0689081 0 0 1 -5.07032,5.06836 5.0689081,5.0689081 0 0 1 -5.06836,-5.06836 5.0689081,5.0689081 0 0 1 5.06836,-5.06836 z m -16.41796,3.26562 a 1.8034584,1.8034584 0 0 0 -1.80469,1.80274 1.8034584,1.8034584 0 0 0 1.80469,1.80469 1.8034584,1.8034584 0 0 0 1.80273,-1.80469 1.8034584,1.8034584 0 0 0 -1.80273,-1.80274 z m 16.41796,0 a 1.8034584,1.8034584 0 0 0 -1.80273,1.80274 1.8034584,1.8034584 0 0 0 1.80273,1.80469 1.8034584,1.8034584 0 0 0 1.80469,-1.80469 1.8034584,1.8034584 0 0 0 -1.80469,-1.80274 z m -22.57617,12.06641 v 12.31445 h 12.31446 v -12.31445 z m 16.41992,0 v 12.31445 h 12.31446 v -12.31445 z m -10.26171,1.08789 a 5.0689081,5.0689081 0 0 1 5.06836,5.06836 5.0689081,5.0689081 0 0 1 -5.06836,5.06836 5.0689081,5.0689081 0 0 1 -5.07032,-5.06836 5.0689081,5.0689081 0 0 1 5.07032,-5.06836 z m 16.41796,0 a 5.0689081,5.0689081 0 0 1 5.07032,5.06836 5.0689081,5.0689081 0 0 1 -5.07032,5.06836 5.0689081,5.0689081 0 0 1 -5.06836,-5.06836 5.0689081,5.0689081 0 0 1 5.06836,-5.06836 z m -16.41796,3.26563 a 1.8034584,1.8034584 0 0 0 -1.80469,1.80273 1.8034584,1.8034584 0 0 0 1.80469,1.80469 1.8034584,1.8034584 0 0 0 1.80273,-1.80469 1.8034584,1.8034584 0 0 0 -1.80273,-1.80273 z m 16.41796,0 a 1.8034584,1.8034584 0 0 0 -1.80273,1.80273 1.8034584,1.8034584 0 0 0 1.80273,1.80469 1.8034584,1.8034584 0 0 0 1.80469,-1.80469 1.8034584,1.8034584 0 0 0 -1.80469,-1.80273 z m -22.57617,12.0664 v 12.31446 h 12.31446 v -12.31446 z m 16.41992,0 v 12.31446 h 12.31446 v -12.31446 z m -10.26171,1.08789 a 5.0689081,5.0689081 0 0 1 5.06836,5.06836 5.0689081,5.0689081 0 0 1 -5.06836,5.06836 5.0689081,5.0689081 0 0 1 -5.07032,-5.06836 5.0689081,5.0689081 0 0 1 5.07032,-5.06836 z m 16.41796,0 a 5.0689081,5.0689081 0 0 1 5.07032,5.06836 5.0689081,5.0689081 0 0 1 -5.07032,5.06836 5.0689081,5.0689081 0 0 1 -5.06836,-5.06836 5.0689081,5.0689081 0 0 1 5.06836,-5.06836 z m -16.41796,3.26368 a 1.8034584,1.8034584 0 0 0 -1.80469,1.80468 1.8034584,1.8034584 0 0 0 1.80469,1.80469 1.8034584,1.8034584 0 0 0 1.80273,-1.80469 1.8034584,1.8034584 0 0 0 -1.80273,-1.80468 z m 16.41796,0 a 1.8034584,1.8034584 0 0 0 -1.80273,1.80468 1.8034584,1.8034584 0 0 0 1.80273,1.80469 1.8034584,1.8034584 0 0 0 1.80469,-1.80469 1.8034584,1.8034584 0 0 0 -1.80469,-1.80468 z m -22.57617,12.0664 v 12.31641 h 12.31446 v -12.31641 z m 16.41992,0 v 12.31641 h 12.31446 v -12.31641 z m -10.26171,1.08985 a 5.0689081,5.0689081 0 0 1 5.06836,5.06835 5.0689081,5.0689081 0 0 1 -5.06836,5.06836 5.0689081,5.0689081 0 0 1 -5.07032,-5.06836 5.0689081,5.0689081 0 0 1 5.07032,-5.06835 z m 16.41796,0 a 5.0689081,5.0689081 0 0 1 5.07032,5.06835 5.0689081,5.0689081 0 0 1 -5.07032,5.06836 5.0689081,5.0689081 0 0 1 -5.06836,-5.06836 5.0689081,5.0689081 0 0 1 5.06836,-5.06835 z m -16.41796,3.26367 a 1.8034584,1.8034584 0 0 0 -1.80469,1.80468 1.8034584,1.8034584 0 0 0 1.80469,1.80469 1.8034584,1.8034584 0 0 0 1.80273,-1.80469 1.8034584,1.8034584 0 0 0 -1.80273,-1.80468 z m 16.41796,0 a 1.8034584,1.8034584 0 0 0 -1.80273,1.80468 1.8034584,1.8034584 0 0 0 1.80273,1.80469 1.8034584,1.8034584 0 0 0 1.80469,-1.80469 1.8034584,1.8034584 0 0 0 -1.80469,-1.80468 z m -22.57617,12.0664 v 12.31446 h 12.31446 v -12.31446 z m 16.41992,0 v 12.31446 h 12.31446 v -12.31446 z m -10.26171,1.08985 a 5.0689081,5.0689081 0 0 1 5.06836,5.06836 5.0689081,5.0689081 0 0 1 -5.06836,5.06836 5.0689081,5.0689081 0 0 1 -5.07032,-5.06836 5.0689081,5.0689081 0 0 1 5.07032,-5.06836 z m 16.41796,0 a 5.0689081,5.0689081 0 0 1 5.07032,5.06836 5.0689081,5.0689081 0 0 1 -5.07032,5.06836 5.0689081,5.0689081 0 0 1 -5.06836,-5.06836 5.0689081,5.0689081 0 0 1 5.06836,-5.06836 z m -16.41796,3.26367 a 1.8034584,1.8034584 0 0 0 -1.80469,1.80469 1.8034584,1.8034584 0 0 0 1.80469,1.80273 1.8034584,1.8034584 0 0 0 1.80273,-1.80273 1.8034584,1.8034584 0 0 0 -1.80273,-1.80469 z m 16.41796,0 a 1.8034584,1.8034584 0 0 0 -1.80273,1.80469 1.8034584,1.8034584 0 0 0 1.80273,1.80273 1.8034584,1.8034584 0 0 0 1.80469,-1.80273 1.8034584,1.8034584 0 0 0 -1.80469,-1.80469 z m -22.57617,12.06641 v 12.31445 h 12.31446 v -12.31445 z m 16.41992,0 v 12.31445 h 12.31446 v -12.31445 z m -10.26171,1.08984 a 5.0689081,5.0689081 0 0 1 5.06836,5.06836 5.0689081,5.0689081 0 0 1 -5.06836,5.06836 5.0689081,5.0689081 0 0 1 -5.07032,-5.06836 5.0689081,5.0689081 0 0 1 5.07032,-5.06836 z m 16.41796,0 a 5.0689081,5.0689081 0 0 1 5.07032,5.06836 5.0689081,5.0689081 0 0 1 -5.07032,5.06836 5.0689081,5.0689081 0 0 1 -5.06836,-5.06836 5.0689081,5.0689081 0 0 1 5.06836,-5.06836 z m -16.41796,3.26367 a 1.8034584,1.8034584 0 0 0 -1.80469,1.80469 1.8034584,1.8034584 0 0 0 1.80469,1.80273 1.8034584,1.8034584 0 0 0 1.80273,-1.80273 1.8034584,1.8034584 0 0 0 -1.80273,-1.80469 z m 16.41796,0 a 1.8034584,1.8034584 0 0 0 -1.80273,1.80469 1.8034584,1.8034584 0 0 0 1.80273,1.80273 1.8034584,1.8034584 0 0 0 1.80469,-1.80273 1.8034584,1.8034584 0 0 0 -1.80469,-1.80469 z m -22.57617,12.06641 v 12.31445 h 12.31446 v -12.31445 z m 16.41992,0 v 12.31445 h 12.31446 v -12.31445 z m -10.26171,1.08984 a 5.0689081,5.0689081 0 0 1 5.06836,5.06836 5.0689081,5.0689081 0 0 1 -5.06836,5.06836 5.0689081,5.0689081 0 0 1 -5.07032,-5.06836 5.0689081,5.0689081 0 0 1 5.07032,-5.06836 z m 16.41796,0 a 5.0689081,5.0689081 0 0 1 5.07032,5.06836 5.0689081,5.0689081 0 0 1 -5.07032,5.06836 5.0689081,5.0689081 0 0 1 -5.06836,-5.06836 5.0689081,5.0689081 0 0 1 5.06836,-5.06836 z m -16.41796,3.26367 a 1.8034584,1.8034584 0 0 0 -1.80469,1.80469 1.8034584,1.8034584 0 0 0 1.80469,1.80273 1.8034584,1.8034584 0 0 0 1.80273,-1.80273 1.8034584,1.8034584 0 0 0 -1.80273,-1.80469 z m 16.41796,0 a 1.8034584,1.8034584 0 0 0 -1.80273,1.80469 1.8034584,1.8034584 0 0 0 1.80273,1.80273 1.8034584,1.8034584 0 0 0 1.80469,-1.80273 1.8034584,1.8034584 0 0 0 -1.80469,-1.80469 z m -22.57617,12.06641 v 12.31445 h 12.31446 v -12.31445 z m 16.41992,0 v 12.31445 h 12.31446 v -12.31445 z m -10.26171,1.08789 a 5.0689081,5.0689081 0 0 1 5.06836,5.07031 5.0689081,5.0689081 0 0 1 -5.06836,5.06836 5.0689081,5.0689081 0 0 1 -5.07032,-5.06836 5.0689081,5.0689081 0 0 1 5.07032,-5.07031 z m 16.41796,0 a 5.0689081,5.0689081 0 0 1 5.07032,5.07031 5.0689081,5.0689081 0 0 1 -5.07032,5.06836 5.0689081,5.0689081 0 0 1 -5.06836,-5.06836 5.0689081,5.0689081 0 0 1 5.06836,-5.07031 z m -16.41796,3.26562 a 1.8034584,1.8034584 0 0 0 -1.80469,1.80469 1.8034584,1.8034584 0 0 0 1.80469,1.80274 1.8034584,1.8034584 0 0 0 1.80273,-1.80274 1.8034584,1.8034584 0 0 0 -1.80273,-1.80469 z m 16.41796,0 a 1.8034584,1.8034584 0 0 0 -1.80273,1.80469 1.8034584,1.8034584 0 0 0 1.80273,1.80274 1.8034584,1.8034584 0 0 0 1.80469,-1.80274 1.8034584,1.8034584 0 0 0 -1.80469,-1.80469 z M -570,295 a 14.999441,14.999441 0 0 0 -15,15 14.999441,14.999441 0 0 0 15,15 14.999441,14.999441 0 0 0 15,-15 14.999441,14.999441 0 0 0 -15,-15 z m 340,0 a 14.999441,14.999441 0 0 0 -15,15 14.999441,14.999441 0 0 0 15,15 14.999441,14.999441 0 0 0 15,-15 14.999441,14.999441 0 0 0 -15,-15 z m -340,6.52148 A 8.4779442,8.4779442 0 0 1 -561.52148,310 8.4779442,8.4779442 0 0 1 -570,318.47852 8.4779442,8.4779442 0 0 1 -578.47852,310 8.4779442,8.4779442 0 0 1 -570,301.52148 Z m 340,0 A 8.4779443,8.4779443 0 0 1 -221.52148,310 8.4779443,8.4779443 0 0 1 -230,318.47852 8.4779443,8.4779443 0 0 1 -238.47852,310 8.4779443,8.4779443 0 0 1 -230,301.52148 Z"
             transform="matrix(0.32227526,0,0,0.32227526,87.496708,82.20225)"
             id="path988"
             inkscape:connector-curvature="0" />
        </g>
      </g>
    </g>
    <path
       style="fill:#cccccc;fill-opacity:1;stroke-width:0.15646325"
       d="m 158.75,164.70831 v 26.45833 h 21.16666 v -26.45833 z m 2.64583,2.64583 h 15.875 v 21.16667 h -15.875 z m 4.12946,0.17312 a 3.9687499,3.9687499 0 0 0 -3.96875,3.96875 3.9687499,3.9687499 0 0 0 3.96875,3.96875 3.9687499,3.9687499 0 0 0 3.96875,-3.96875 3.9687499,3.9687499 0 0 0 -3.96875,-3.96875 z m 5.38572,1.18856 v 3.60856 h 4.81056 v -3.60856 z m -5.38572,0.3483 a 2.4319503,2.4319503 0 0 1 2.4319,2.43189 2.4319503,2.4319503 0 0 1 -2.4319,2.43189 2.4319503,2.4319503 0 0 1 -2.43189,-2.43189 2.4319503,2.4319503 0 0 1 2.43189,-2.43189 z m 7.0559,7.60315 v 1.87069 h 3.40755 v -1.87069 z m -9.0873,0.93534 v 1.60352 h 3.60805 v -1.60352 z m -1.56889,7.30343 v 2.9099 h 2.8329 v -2.9099 z m 4.01319,0 v 2.9099 h 2.83342 v -2.9099 z m 4.01371,0 v 2.9099 h 2.8329 v -2.9099 z m 4.01319,0 v 2.9099 h 2.83342 v -2.9099 z m -10.63708,0.25838 a 1.1804256,1.1804256 0 0 1 1.18081,1.18081 1.1804256,1.1804256 0 0 1 -1.18081,1.18029 1.1804256,1.1804256 0 0 1 -1.18029,-1.18029 1.1804256,1.1804256 0 0 1 1.18029,-1.18081 z m 4.01371,0 a 1.1804256,1.1804256 0 0 1 1.18029,1.18081 1.1804256,1.1804256 0 0 1 -1.18029,1.18029 1.1804256,1.1804256 0 0 1 -1.18081,-1.18029 1.1804256,1.1804256 0 0 1 1.18081,-1.18081 z m 4.01319,0 a 1.1804256,1.1804256 0 0 1 1.18029,1.18081 1.1804256,1.1804256 0 0 1 -1.18029,1.18029 1.1804256,1.1804256 0 0 1 -1.18029,-1.18029 1.1804256,1.1804256 0 0 1 1.18029,-1.18081 z m 4.01371,0 a 1.1804256,1.1804256 0 0 1 1.18029,1.18081 1.1804256,1.1804256 0 0 1 -1.18029,1.18029 1.1804256,1.1804256 0 0 1 -1.18081,-1.18029 1.1804256,1.1804256 0 0 1 1.18081,-1.18081 z m -12.04061,0.77463 a 0.40577127,0.40577127 0 0 0 -0.40566,0.40618 0.40577127,0.40577127 0 0 0 0.40566,0.40566 0.40577127,0.40577127 0 0 0 0.40566,-0.40566 0.40577127,0.40577127 0 0 0 -0.40566,-0.40618 z m 4.01371,0 a 0.40577127,0.40577127 0 0 0 -0.40566,0.40618 0.40577127,0.40577127 0 0 0 0.40566,0.40566 0.40577127,0.40577127 0 0 0 0.40566,-0.40566 0.40577127,0.40577127 0 0 0 -0.40566,-0.40618 z m 4.01319,0 a 0.40577127,0.40577127 0 0 0 -0.40566,0.40618 0.40577127,0.40577127 0 0 0 0.40566,0.40566 0.40577127,0.40577127 0 0 0 0.40566,-0.40566 0.40577127,0.40577127 0 0 0 -0.40566,-0.40618 z m 4.01371,0 a 0.40577127,0.40577127 0 0 0 -0.40566,0.40618 0.40577127,0.40577127 0 0 0 0.40566,0.40566 0.40577127,0.40577127 0 0 0 0.40566,-0.40566 0.40577127,0.40577127 0 0 0 -0.40566,-0.40618 z"
       id="rect1120"
       inkscape:connector-curvature="0" />
    <rect
       style="opacity:0;fill:#d40000;fill-opacity:1;stroke-width:0.26458332"
       id="rect1169"
       width="5.0349665"
       height="34.108391"
       x="92.742523"
       y="123.27479" />
    <path
       style="opacity:1;fill:#d40000;fill-opacity:1;stroke-width:2.1637013"
       d="m 357.23633,-122.51562 v 90.978511 h 3.83594 V -118.67969 H 716.70898 V 126.04688 H 664.70312 V 80.152344 h -3.83398 v 45.894536 h -0.0117 v 3.83398 h 59.68555 v -3.83398 -248.5625 H 716.709 361.07229 Z"
       transform="matrix(0.26458333,0,0,0.26458333,0,164.70831)"
       id="rect1171"
       inkscape:connector-curvature="0" />
    <path
       style="opacity:1;fill:#0000ff;fill-opacity:1;stroke-width:2.95064163"
       d="M 373.73828,-2.8730469 V 0.9609375 H 542.92773 V 128.0293 v 3.83398 h 106.35938 v -0.002 h 0.2832 V 80.052734 h -3.83398 V 128.0293 H 546.76172 V -2.8730469 h -3.83399 z"
       transform="matrix(0.26458333,0,0,0.26458333,0,164.70831)"
       id="rect1181"
       inkscape:connector-curvature="0" />
    <path
       style="opacity:1;fill:#445500;fill-opacity:1;stroke-width:0.79264998"
       d="M 357.4375,-11.115234 V 1.0957031 h 3.83594 V -7.2558594 H 560.48828 V 115.40039 h -0.002 v 3.83399 H 634.375 v -0.34766 h 0.0566 V 79.929688 h -3.83398 v 35.470702 h -66.2734 V -11.089844 h -3.83594 -199.21484 v -0.02539 z"
       transform="matrix(0.26458333,0,0,0.26458333,0,164.70831)"
       id="rect1189"
       inkscape:connector-curvature="0" />
    <path
       style="opacity:1;fill:#aa4400;fill-opacity:1;stroke-width:3.38332582"
       d="m 357.08203,-19.304688 v 3.833985 h 218.61133 v 116.732423 3.83594 h 43.34961 v -2.91993 h 0.002 V 79.919922 h -3.83398 V 101.26172 H 579.5293 v -116.732423 -3.833985 z"
       transform="matrix(0.26458333,0,0,0.26458333,0,164.70831)"
       id="rect1199"
       inkscape:connector-curvature="0" />
  </g>
</svg>
