<?xml version="1.0" encoding="UTF-8" standalone="no"?>
<!-- Created with Inkscape (http://www.inkscape.org/) -->

<svg
   xmlns:dc="http://purl.org/dc/elements/1.1/"
   xmlns:cc="http://creativecommons.org/ns#"
   xmlns:rdf="http://www.w3.org/1999/02/22-rdf-syntax-ns#"
   xmlns:svg="http://www.w3.org/2000/svg"
   xmlns="http://www.w3.org/2000/svg"
   xmlns:sodipodi="http://sodipodi.sourceforge.net/DTD/sodipodi-0.dtd"
   xmlns:inkscape="http://www.inkscape.org/namespaces/inkscape"
   width="200"
   height="200"
   viewBox="0 0 52.916666 52.916668"
   version="1.1"
   id="svg8"
   sodipodi:docname="humidity.svg"
   inkscape:version="0.92.5 (2060ec1f9f, 2020-04-08)">
  <defs
     id="defs2" />
  <sodipodi:namedview
     id="base"
     pagecolor="#ffffff"
     bordercolor="#666666"
     borderopacity="1.0"
     inkscape:pageopacity="0.0"
     inkscape:pageshadow="2"
     inkscape:zoom="3.959798"
     inkscape:cx="139.73317"
     inkscape:cy="74.959452"
     inkscape:document-units="mm"
     inkscape:current-layer="layer1"
     showgrid="false"
     units="px"
     inkscape:window-width="1920"
     inkscape:window-height="1032"
     inkscape:window-x="0"
     inkscape:window-y="24"
     inkscape:window-maximized="1" />
  <metadata
     id="metadata5">
    <rdf:RDF>
      <cc:Work
         rdf:about="">
        <dc:format>image/svg+xml</dc:format>
        <dc:type
           rdf:resource="http://purl.org/dc/dcmitype/StillImage" />
        <dc:title />
      </cc:Work>
    </rdf:RDF>
  </metadata>
  <g
     inkscape:label="Layer 1"
     inkscape:groupmode="layer"
     id="layer1"
     transform="translate(0,-244.08332)">
    <path
       style="fill:#0c28de;fill-opacity:1;stroke-width:0.98053271"
       d="M 100 20.308594 C 100 20.308594 41.577453 123.61935 65.943359 163.33984 C 79.56952 185.55273 120.43054 185.55281 134.05664 163.33984 C 158.42248 123.61916 100 20.308594 100 20.308594 z M 100 31.253906 C 100 31.253906 150.17027 124.71773 129.24609 160.65234 C 117.54468 180.74798 82.455376 180.7479 70.753906 160.65234 C 49.829668 124.71796 100 31.253906 100 31.253906 z M 100.40625 38.378906 C 97.829519 43.386365 55.783771 126.11318 74.253906 158.79102 C 79.354825 167.81566 89.337991 172.50252 99.527344 172.88281 C 96.1373 170.14477 93.218264 166.01579 91.208984 160.40625 C 81.666626 133.76568 91.483965 77.566068 100.40625 38.378906 z "
       transform="matrix(0.26458333,0,0,0.26458333,0,244.08332)"
       id="rect923" />
  </g>
</svg>
