<?xml version="1.0" encoding="UTF-8" standalone="no"?>
<!-- Created with Inkscape (http://www.inkscape.org/) -->

<svg
   xmlns:dc="http://purl.org/dc/elements/1.1/"
   xmlns:cc="http://creativecommons.org/ns#"
   xmlns:rdf="http://www.w3.org/1999/02/22-rdf-syntax-ns#"
   xmlns:svg="http://www.w3.org/2000/svg"
   xmlns="http://www.w3.org/2000/svg"
   xmlns:sodipodi="http://sodipodi.sourceforge.net/DTD/sodipodi-0.dtd"
   xmlns:inkscape="http://www.inkscape.org/namespaces/inkscape"
   width="50"
   height="50"
   viewBox="0 0 13.229166 13.229167"
   version="1.1"
   id="svg8"
   inkscape:version="0.92.5 (2060ec1f9f, 2020-04-08)"
   sodipodi:docname="password.svg">
  <defs
     id="defs2" />
  <sodipodi:namedview
     id="base"
     pagecolor="#ffffff"
     bordercolor="#666666"
     borderopacity="1.0"
     inkscape:pageopacity="0.0"
     inkscape:pageshadow="2"
     inkscape:zoom="11.2"
     inkscape:cx="46.940728"
     inkscape:cy="35.450156"
     inkscape:document-units="mm"
     inkscape:current-layer="layer1"
     showgrid="false"
     units="px"
     inkscape:window-width="1920"
     inkscape:window-height="1056"
     inkscape:window-x="1920"
     inkscape:window-y="0"
     inkscape:window-maximized="1" />
  <metadata
     id="metadata5">
    <rdf:RDF>
      <cc:Work
         rdf:about="">
        <dc:format>image/svg+xml</dc:format>
        <dc:type
           rdf:resource="http://purl.org/dc/dcmitype/StillImage" />
        <dc:title></dc:title>
      </cc:Work>
    </rdf:RDF>
  </metadata>
  <g
     inkscape:label="Layer 1"
     inkscape:groupmode="layer"
     id="layer1"
     transform="translate(0,-283.77085)">
    <path
       style="fill:#999999;fill-opacity:1;stroke-width:1.02188337"
       d="M 39 11 A 9.9999992 9.9999992 0 0 0 29.087891 19.773438 L 2.7519531 30.65625 L 1 34.896484 L 2.1054688 37.167969 L 7.7539062 39 L 10.027344 33.894531 L 15.675781 35.726562 L 17.949219 30.621094 L 23.597656 32.453125 L 25.871094 27.347656 L 31.519531 29.179688 L 32.646484 28.714844 A 9.9999992 9.9999992 0 0 0 39 31 A 9.9999992 9.9999992 0 0 0 49 21 A 9.9999992 9.9999992 0 0 0 39 11 z M 39 13 A 7.9999991 7.9999991 0 0 1 47 21 A 7.9999991 7.9999991 0 0 1 39 29 A 7.9999991 7.9999991 0 0 1 31 21 A 7.9999991 7.9999991 0 0 1 39 13 z M 43.214844 16.25 A 2.857143 2.857143 0 0 0 40.357422 19.107422 A 2.857143 2.857143 0 0 0 43.214844 21.964844 A 2.857143 2.857143 0 0 0 46.072266 19.107422 A 2.857143 2.857143 0 0 0 43.214844 16.25 z M 29.023438 21.443359 A 9.9999992 9.9999992 0 0 0 31.128906 27.148438 L 30.630859 27.353516 L 24.894531 25.341797 L 22.708984 30.626953 L 16.972656 28.615234 L 14.787109 33.902344 L 9.0507812 31.888672 L 6.8671875 37.175781 L 3.9980469 36.167969 L 3.109375 34.34375 L 4.2011719 31.701172 L 12.123047 28.427734 L 20.044922 25.152344 L 27.966797 21.878906 L 29.023438 21.443359 z "
       transform="matrix(0.26458333,0,0,0.26458333,0,283.77085)"
       id="path886" />
  </g>
</svg>
